<svg xmlns="http://www.w3.org/2000/svg" width="24" height="24" viewBox="0 0 24 24" fill="none" stroke="#2563eb" stroke-width="2" stroke-linecap="round" stroke-linejoin="round">
  <path d="M12 3c.132 0 .263 0 .393 0a7.5 7.5 0 0 1 7.92 12.446a1 1 0 0 1 -.313.093h-.002a.34.34 0 0 0 -.168.046a5.897 5.897 0 0 1 -.53.192a6.531 6.531 0 0 1 -.283.093a6.27 6.27 0 0 1 -.424.114a6.803 6.803 0 0 1 -.382.089a6.558 6.558 0 0 1 -.343.07a6.89 6.89 0 0 1 -.409.062a6.52 6.52 0 0 1 -.365.043a6.723 6.723 0 0 1 -.373.025a6.784 6.784 0 0 1 -.373-.025a6.52 6.52 0 0 1 -.365-.043a6.89 6.89 0 0 1 -.409-.062a6.558 6.558 0 0 1 -.343-.07a6.803 6.803 0 0 1 -.382-.089a6.27 6.27 0 0 1 -.424-.114a6.531 6.531 0 0 1 -.283-.093a5.897 5.897 0 0 1 -.53-.192a.34.34 0 0 0 -.168-.046h-.002a1 1 0 0 1 -.313-.093a7.5 7.5 0 0 1 7.92-12.446c.13 0 .261 0 .393 0z"/>
  <path d="M12 15v2"/>
  <path d="M10 9a2 2 0 1 1 4 0c0 1.667-.5 2.5-2 3"/>
</svg> 